Patient4_TMGait_0pt6_01_right_16_EMG.mot
version=1
nRows=26
nColumns=33
inDegrees=no
endheader
time	1LAddLong	2LGlutMax	3LGlutMed	4LIliopsoas	5LSemiMemb	6LBicFemLong	7LRecFem	8LVastMed	9LVastLat	10LGasMed	11LTibAnt	12lTibPost	13LPeroneusLong	14LSol	15LExtDigLong	16LFlexDigLong	17RAddLong	18RGlutMax	19RGlutMed	20RIliopsoas	21RSemiMemb	22RBicFemLong	23RRecFem	24RVastMed	25RVastLat	26RGasMed	27RTibAnt	28RTibPost	29RPeroneusLong	30RSol	31RExtDigLong	32RFlexDigLong
18.87	-0.003662	0.058136	-0.036469	0.014343	0.02655	-0.007629	0.046234	0.005646	0.072937	0.5484	-0.010223	0.03479	-0.3093	0.35584	0.010986	0.027924	0.070496	-0.29465	0.27542	-0.068054	-0.005798	-0.036926	-0.025635	-0.16068	-0.047607	-0.016327	0.084381	-0.007477	-0.24246	-0.028839	-0.010529	-0.00412
18.871	0.000763	0.090485	-0.059357	0.013123	0.055084	-0.007629	0.002747	0.005951	0.017242	0.17471	0.023804	-0.02121	-0.65002	0.28763	-0.035858	-0.36087	0.070496	-0.32089	0.23819	-0.0354	0.012512	-0.030518	0.033875	-0.16464	-0.045013	-0.012817	-0.28351	-0.002136	0.52246	-0.072174	-0.007019	0.002289
18.872	-0.010223	0.075989	-0.061951	-0.002747	0.028687	0.043945	-0.007935	0.003204	0.048981	-0.25696	0.05127	0.028534	-0.27908	0.11581	-0.10727	0.21698	0.080414	-0.36499	0.094604	-0.022888	0.035095	-0.014038	0.10407	-0.15915	-0.014191	-0.011749	-0.63553	-0.002289	0.513	-0.10422	-0.005341	0.002899
18.873	-0.003052	0.08255	-0.044098	0.00351	0.018463	0.08255	0.013275	0.001068	0.089569	-0.4866	0.043488	0.050507	-0.19592	0.10529	-0.12909	0.10605	0.07019	-0.36911	0.10437	-0.036621	0.013275	-0.004272	0.11322	-0.16342	0.005646	-0.001068	-0.44907	-0.002594	-0.014648	-0.1178	-0.003052	0.006561
18.874	-0.007324	0.12207	0.031891	0.028992	-0.018768	0.08606	0.017548	0.007324	0.080719	-0.6044	-0.030975	0.019684	-0.075073	0.12466	-0.036163	-0.00061	0.021667	-0.31784	0.19653	-0.035706	0.017548	0.009308	0.089569	-0.16007	-0.001068	0.004883	-0.1178	0.00061	0.066071	-0.12405	-0.003662	0.010071
18.875	-0.012207	0.1413	0.027618	0.013275	-0.028076	0.061646	0.02594	0.007172	0.073547	-0.6308	0.011444	-0.000916	0.20752	0.079041	0.090637	0.010529	-0.039673	-0.31647	0.22446	-0.072632	0.015869	0.018616	0.077667	-0.076752	-0.004272	0.003662	0.24536	-0.001831	-0.002136	-0.13107	-0.000305	0.014038
18.876	-0.009003	0.11597	-0.094604	0.010071	-0.00946	0.007782	0.03006	0.006866	0.050354	-0.65735	0.013275	-0.00412	0.15732	-0.008087	0.073395	-0.005188	-0.03952	-0.32196	0.1329	-0.11536	0.043335	0.048065	0.15182	-0.048828	-0.0177	-0.003204	0.45212	-0.000305	-0.23895	-0.17441	-0.00351	0.00351
18.877	0.002289	0.092468	-0.12054	0.004425	-0.003357	-0.044861	0.039063	0.010834	0.010529	-0.55298	0.014648	-0.00412	0.16037	0.1471	-0.002136	-0.000305	-0.023804	-0.32974	0.20493	-0.11643	0.018616	0.063782	0.22934	-0.050354	-0.014648	-0.011902	0.37186	-0.005188	-0.038757	-0.10361	-0.006561	0.00824
18.878	0.018005	0.11734	-0.041199	0.015717	0.052338	-0.057831	0.034637	0.00351	-0.007172	-0.36102	-0.002136	-0.000763	0.27069	0.25833	-0.023346	0.013428	-0.012054	-0.3125	0.29083	0.002899	0.005951	0.034637	0.2124	-0.0383	-0.022278	-0.016632	0.26062	-0.006866	0.1442	0.014801	-0.001526	0.008392
18.879	0.007019	0.13428	-0.044708	0.020752	0.080261	-0.044403	0.061646	0.009155	-0.02243	-0.11017	0.005798	0.014648	-0.25711	0.22018	0.069885	-0.098724	-0.01709	-0.32242	0.22201	0.025024	-0.007477	0.027161	0.16724	-0.051727	-0.023499	-0.003815	-0.31632	-0.002899	-0.012512	-0.076294	-0.004883	0.005646
18.88	0.002136	0.12817	-0.096588	0.004272	0.069885	0.006561	0.044708	0.002899	-0.03006	-0.27634	0.027466	0.018463	-0.44296	0.15762	0.073395	-1.0005	-0.029907	-0.30823	0.23422	0.011749	0.001831	0.030975	0.17578	-0.055847	-0.025787	0.00412	-0.49255	-0.002594	0.13306	-0.10712	-0.003052	0.001984
18.881	-0.000916	0.11307	-0.1239	0.027466	0.028534	0.00473	0.011444	0.011292	-0.015259	-0.33859	0.014496	0.013275	-0.48691	-0.040436	-0.001373	0.94818	-0.033875	-0.26672	0.29343	-0.034637	0.000305	0.023956	0.11917	-0.045319	-0.016937	-0.003052	-0.2214	-0.002594	-0.072479	0.086212	-0.001831	0.005341
18.882	0.005951	0.12177	-0.14023	-0.016327	-0.003967	-0.022888	0.001678	0.009155	0.017853	-0.045166	0.002747	0.005646	0.21866	-0.1059	-0.10162	0.25894	-0.03418	-0.20783	0.41184	0.069275	0.00061	0.010986	0.1358	-0.023041	-0.00412	-0.005646	0.080414	-0.003815	-0.075989	0.029297	0.000763	0.004272
18.883	0.006561	0.13412	-0.112	-0.02655	-0.008087	-0.031586	0.006104	0.00061	0.065002	0.26276	0.009918	0.005035	0.17166	-0.23407	-0.08728	-0.12817	-0.03418	-0.23911	0.39963	0.090332	0.002747	0.010834	0.16892	-0.000763	-0.03006	-0.000153	0.45334	-0.002747	-0.064087	0.029907	-0.004425	0.005798
18.884	0.000458	0.11475	-0.081482	-0.010376	0.004883	-0.058441	0.042267	0.005493	0.13916	0.63294	0.024567	0.046234	-0.30014	-0.074158	-0.039063	-0.26199	-0.032654	-0.2298	0.35904	0.012207	-0.002136	0.032806	0.11704	0.002136	-0.030212	-0.000916	0.24063	-0.003967	-0.20355	0.038147	-0.004883	-0.000763
18.885	0.003967	0.081482	-0.003662	-0.001221	-0.015259	-0.048981	0.020294	-0.001068	0.18219	0.74417	0.019836	0.19165	-0.20752	-0.1268	-0.027618	0.39627	-0.029907	-0.25803	0.17029	0.001831	0.017395	0.036011	0.070343	-0.020752	-0.00412	-0.000916	-0.035095	-0.001831	-0.19028	-0.014801	-0.002441	-0.002136
18.886	0.007324	0.090179	-0.014648	-0.009155	-0.016937	-0.058594	0.049286	-0.011597	-0.002136	0.33859	0.015564	0.004578	0.052643	-0.38376	-0.019836	-0.20294	-0.025024	-0.26459	0.10712	0.018768	0.014496	0.037537	0.069427	-0.003662	-0.02533	0.013123	0.46036	-0.001984	-0.21988	-0.039215	-0.009613	-0.001831
18.887	0.001831	0.099182	-0.014343	-0.00412	-0.001526	-0.041351	0.033112	-0.00351	0.039063	-0.32425	0.016937	-0.16403	0.095215	-0.30716	-0.039673	-0.23819	-0.026855	-0.2623	0.021515	0.02121	0.018921	0.007324	0.05722	-0.029602	-0.025177	0.006866	0.76233	-0.002594	-0.17609	-0.010834	-0.001373	0.002747
18.888	-0.005035	0.080872	-0.003815	-0.00473	-0.001373	-0.047607	0.032959	-0.000305	0.050507	-0.29327	-0.00824	-0.04425	0.075989	-0.022125	0.0177	0.46127	-0.004425	-0.19424	0.043945	0.021973	-0.003967	-0.007324	0.059509	-0.072021	-0.035706	-0.00061	0.96863	-0.006409	-0.07019	-0.086517	-0.003357	-0.002747
18.889	0.003815	0.12283	0.021515	-0.001526	0.039673	-0.05188	0.02182	0.004272	0.074615	0.64682	0.007019	-0.033264	0.036163	-0.018311	0.11948	0.1387	0.002441	-0.19928	0.28564	0.028381	-0.07019	-0.044556	0.057678	-0.081787	-0.017548	-0.00946	0.86823	-0.002594	-0.089569	-0.072784	-0.011444	-0.005798
18.89	-0.001068	0.1059	0.067444	0.000458	0.10208	0.006104	0.046234	0.010834	0.11032	0.79132	0.014343	-0.005341	-0.10468	0.26611	0.12848	-0.029297	0.015717	-0.21271	0.27954	0.032349	-0.080414	-0.066223	0.042877	-0.078583	-0.02533	-0.001526	0.50888	-0.005798	0.16388	-0.074463	-0.00946	-0.001526
18.891	0.003204	0.069427	0.11749	0.010223	0.052032	0.028534	0.009308	0.016479	0.14908	-0.083466	0.00946	0.015259	-0.2359	0.52139	0.082703	-0.043793	0.068817	-0.20462	0.2211	0.027466	-0.02121	-0.088654	0.057983	-0.11887	-0.015106	-0.014496	0.13641	-0.004425	0.22964	0.086517	-0.00351	-0.00885
18.892	-0.000916	0.075989	-0.001221	0.025177	0.00824	0.023956	-0.010681	0.023041	0.21149	-0.36011	-0.011444	0.005951	-0.24048	0.58304	0.008087	0.20844	0.098419	-0.19394	-0.036163	0.066528	0.052643	-0.043335	0.10803	-0.13092	-0.050049	-0.001221	-0.71945	-0.007935	0.32486	0.061035	-0.004578	-0.013428
18.893	-0.000153	0.03418	-0.093536	0.016327	0.024719	0.012817	0.036163	0.00885	0.17746	-0.29739	-0.004578	-0.089264	-0.15015	0.71411	-0.046387	0.12482	0.076294	-0.18021	0.23148	0.040283	-0.027771	0.051575	0.054169	-0.10269	-0.045471	-0.001678	-0.70679	-0.007477	-0.018311	0.098267	-0.002441	-0.018616
18.894	-0.005798	0.010376	-0.12695	0.032196	0.052643	-0.018616	0.059357	-0.000458	0.069122	-0.41245	0.012207	0.1387	-0.082703	0.53482	-0.01358	-0.055237	0.047607	-0.1503	0.19104	-0.080261	-0.28839	0.17242	0.045776	-0.062408	-0.028687	0.007324	-0.5307	-0.009308	-0.1442	0.21774	-0.005951	-0.021667
18.895	0.005035	-0.012665	-0.18066	0.007935	0.050507	-0.022736	0.066071	-0.024567	0.028992	-0.41809	0.013123	0.10895	0.11124	-0.030518	-0.080566	0.046082	-0.019226	-0.14755	0.1831	-0.16419	-0.36346	0.20981	0.004272	-0.066528	-0.020447	-0.006866	-0.42694	-0.008087	-0.0383	0.1828	-0.002594	-0.038757
